<svg xmlns="http://www.w3.org/2000/svg" xml:space="preserve" width="75" height="75" style="shape-rendering:geometricPrecision;text-rendering:geometricPrecision;image-rendering:optimizeQuality;fill-rule:evenodd;clip-rule:evenodd" viewBox="0 0 3183 3183"><path d="M1591 0c879 0 1592 713 1592 1591 0 879-713 1592-1592 1592C713 3183 0 2470 0 1591 0 713 713 0 1591 0zm59 275c65 1 253 184 307 237 42 38 78 82 116 124 17-11 30-27 44-41 81-82 156-172 200-279-214-122-462-192-726-192-810 0-1467 657-1467 1467 0 426 181 809 470 1076 49-42 99-83 148-125 5-2 6-6 4-11-11-7-23-11-32-21-20-23-29-55-27-85 2-18-4-37-16-51-38-49-77-99-92-159-6-22-9-45-9-68 0-49-9-100 5-149 20-88 57-176 126-236 43-36 85-73 132-101-2-24-8-47-14-70-3-18-17-31-31-40-28-4-60 6-85-11-22-24-45-48-62-75-51-75-102-150-146-229-30-55-139-228-130-285 4-46 41-85 86-94 34-7 72-10 105 3 121 56 230 133 338 211 62 46 124 92 186 139 70 49 324 265 377 280 144-155-373-204-255-268 91-58 251-24 325-96 1-9-4-15-8-21-47-68-94-137-140-205-15-22-59-80-64-114-3-31 41-9 58-6 103 24 217 9 323 3 57-143-23-361-46-508zm711 67c16 40 37 94 37 126 1 100-10 178-17 276 90-17 184-16 268-53 11-4 24-8 31 4 5 11-5 20-12 28-45 51-68 116-97 177-14 36-33 70-46 107-11 31 95 83 117 90 43 16 77-13 84 31-30 24-125 97-140 119-92 84-3 126 100 206 12 7 11 30-4 34-35 8-209 71-148 129 28 27 58 52 85 81 4 10-5 22-17 21-26 0-53 1-80 3 1 32 30 45 19 74-27 12-61 1-85 21-12 10-28 18-35 33-2 18 13 32 27 42 112 84 225 229 177 376-14 42-36 80-55 119-9 18-9 38-5 57 14 50 23 102 38 152 5 15 9 30 14 45 272-266 441-638 441-1049 0-528-279-990-697-1249zm237 2316c-18-70-36-142-56-219-12 14-110 176-112 191-2 55-3 112-4 168 61-42 119-89 172-140zm-194 155c3-55 7-109 6-166-29 31-53 66-75 102-7 11-3 24-1 36 5 21 9 42 14 64 19-12 38-24 56-36zm-253 135c134-181 305-372 383-544 30-61 67-121 76-189 16-122-106-257-198-322-88 133-100 127-180 173-15 6-9 26-9 40 15 117 34 245 44 361 20-26 38-53 55-79-7-9-16-16-21-26-1-8 5-16 8-23 18-30 32-62 48-93 8-14 16-31 7-46-26-48-55-93-78-142 12-1 22 4 28 14 26 37 48 76 71 114 11 16 12 38 2 55-20 39-42 77-63 116 3 3 9 8 12 11 17-18 27-40 43-59 6-2 13-1 18 3 4 7 0 15-4 21-115 174-237 342-357 512-27 38-51 78-79 115-19 19-33 42-48 64 84-19 165-44 242-76zm-279 83c16-19 34-38 44-61-31-67-59-171-78-242-29-100-44-203-58-306-11-86-24-172-35-257-3-23-3-48-17-67-15-20-34-38-51-57-48-52-94-107-143-157-2 18-2 36 3 53 5 30 30 52 32 83 1 11 12 18 15 30 10 51 29 102 26 155 23 27 41 60 41 97 2 39-11 85-49 104-13 7-10 23-10 35 5 52 10 105 6 159-1 30-17 84 3 108 25 7 52 20 61 46 14 43-9 90-43 116-24 24-57 35-88 48 4 49 29 93 39 140h21c96 0 190-9 281-27zm-334 26c-12-15-16-36-23-54-7-6-16 0-23 2-20 8-98 20-96 29 0 4 1 8 2 12 46 6 93 10 140 11zm-245-29c5-25 8-50 9-76-64-13-71-18-82-65-10-46 2-64-2-92-5-27-18-52-31-75-11-19-35-18-54-19-87 0-179-19-246-78-24-21-44-46-62-72-20-31-41-19-69 5-47 43-95 86-143 128 50 45 103 86 158 124l21-21c10-10 20-24 37-20-1 3-2 9-3 12-13 13-24 27-33 43 150 98 319 169 500 206zm951-1766c11 0 20 9 20 20s-9 20-20 20-20-9-20-20 9-20 20-20zm-273 16c11 0 20 9 20 20s-9 20-20 20c-12 0-21-9-21-20s9-20 21-20zm-558 793c10 0 17 8 17 18s-7 18-17 18c-11 0-18-8-18-18s7-18 18-18zm-383 60c11 0 19 9 19 19 0 9-8 18-19 18-9 0-17-9-17-18 0-10 8-19 17-19zm965-1313c-72 18-132 66-191 110-58 45-84 117-98 186-28 184 18 592 65 730 4-7 21-32 25-38 14-4 33 0 28 19-15 32-38 61-42 97-1 21-3 45 12 63 14 17 39 17 59 11 26-7 46-26 70-38 32-16 42 10 21 27-7 6-15 12-22 19-12 18 96 58 116 61 2-44 8-88 9-132-64 29-48-37-79-12-34 29-72 52-116 59-19 4-40-8-44-27-5-14-3-29-3-43 5-25 16-49 35-68 42-43 100-62 156-81 54-17 102-48 153-71 53-25 112-40 170-32 40 6 84 20 109 54 18 26 11 76-26 81-55 7-113-13-167 4-14 5-30 5-40 15-14 23-13 87-30 91-23 7-49-11-54 6-11 38-28 140-28 164 142-2 271-93 308-224-72 1-58-24-20-36 32-10 72 1 84-42 34-80-42-97-83-124 3-19 35-2 56 3 4-76 7-151 9-227 0-8 2-30 1-38-22 20-48 41-76 52-52 21-101 15-149-12-34-19-60-44-74-79-9-27-14-51-11-79 11-85 85-147 174-146 38 0 80 18 111 37-7-52-20-114-40-162-5-14-14-25-27-32-145-79-290-70-420 30-44 36-87 73-130 110-29 27-55 14-63-18-2-13 12-39 18-50 62-121 200-181 324-225-27-2-54-1-80 7zM441 885c-19 6-38 17-44 37-31 106 215 446 277 552 3-14 4-28 7-42 14-36 34-73 66-97 43-34 99-44 152-55-86-73-168-148-249-226-19-15-33-36-51-52-19-15-3-27 41 10 61 55 122 112 182 167 37 35 77 68 110 106 15 18 26 39 46 52 16 3 32 0 48 3 143 22 215 55 298 180 10 15 18 32 28 47 21-10 38-26 57-38 7-6 15-9 19-18-14-16-32-27-49-40-71-55-141-109-213-162-162-119-324-239-487-357-37-26-78-44-118-66-37-20-82-17-120-1zm1701 431c16 82 107 138 188 118 47-10 89-43 109-86 35-69 2-163-67-196-116-62-261 39-230 164zm-1311 8c-34 10-67 29-90 57-8 25 18 45 32 63 16-20 30-43 52-58 9-6 19-13 30-19 22-16 50-18 75-29-40-32-40-32-99-14zm-16 124c-12 19-16 89 1 97 10 4 19 8 25 17 11 14 23 116 28 144 10 66 12 141 25 207-1 16 42 72 45 25 4-59-5-118-12-176-5-58-13-116-20-174-5-18 15-27 27-12 25 26 51 51 77 75 29 28-13 17-17 14-11-8-21-20-33-27 13 47 5 62 53 87 46 24 67-22 75-86 3-17 0-34-4-51-3-8-5-16-7-24-13-43 25 0 26 31 2 31-8 67 28 95 25 19 52 2 56-25 2-40-4-79-6-119-3-20 18-19 33-4 20 20 44 38 62 61 37 40 57 93 71 145 6 30 13 60 21 90 11 43 31 9 31 1-1-60-20-136-42-192-23-60-64-111-100-163-26-39-65-67-109-83-98-40-271-65-334 47zm1640 65c1 51-4 101-2 152 41-7 60-151 2-152zm-1251 49c2 21 7 45 9 64 23 6 46 15 69 22-14-37-51-58-78-86zm436 108c6 42 40 73 78 87-3-52-24-101-28-153 0-12-5-23-12-32-25 26-45 61-38 98zm-708-63c1 12 6 21 17 24 0-12-6-20-17-24zm448 14c7 31 18 61 27 91 2 8 7 15 13 19 46 34 90 74 113 126 73 72 142 149 212 224 9 10 14 22 16 35 13 112 26 224 45 335 4 23 7 45 10 68 25-39 45-79 69-118 5-11 13-24 7-36-12-20-27-39-40-59-17-28-43-48-62-76-9-14 0-31 9-44 27-40 50-82 78-122 13-8 12-7 28-7-28 46-58 93-87 139-5 9-13 22-4 32 15 19 30 39 44 58 21 31 48 57 63 92-5 11-10 22-17 32-23 35-41 72-60 109-6 9-8 21-4 32 47 88 96 175 142 264-6 14-2 13-16 14-46-86-93-171-139-258 1 24 6 47 12 69 23 106 56 209 96 309 28-42 59-82 84-125-3-48-16-95-23-143-14-71-24-143-27-215-1-51-7-102-12-154-8-73-3-147 2-221 0-4 1-10-3-13-20-15-73-53-78-54-29 8-64 16-90-3-27-18-31-53-40-82-13 3-26 14-39 7-10-4-12-18-7-27 12-29 10-61 3-92-12-3-25-5-38-4-36 4-73 0-110-1-14-2-32 2-41-11 3-17 16-29 22-44 11-30 19-61 24-92-2-3-5-8-6-10-56-24-117-30-176-44zm802 78c0 37 48 14 43-12-15 3-29 7-43 12zm-86 40c-6 27 55 9 50-27-17 8-34 17-50 27zm150 37c11 0 23-1 34-1 22-23-9-36-34 1zm75-2h29c-3-29-16-19-29 0zm-312 7c-7 31 34 3 49-17-17 4-33 11-49 17zm144 20c19-3 38-9 55-19-15-32-46 0-55 19zm-229 18c12 39 57 5 56-25-26 10-33 11-56 25zm-960 71c90 28 111 74 90 58-30-14-58-31-90-38-1 5-2 9-2 13 20 6 42 11 60 23s30 31 47 44c50 39 99 80 109 147 11 49-13 96-29 141 64-6 2 122-17 148 17-17 28-38 36-61-1 15 1 33-8 46-7 15-25 21-39 30 46 66 83 138 127 206 11-25 25-55 54-64 26-6 44 18 57 36 14-20 23-48 45-59 15-7 32 5 46 13 24 12 48-26 53-49 6-27-14-113-41-136-15-11-35-14-50-25-17-14-31-31-46-46 7-16 62 46 86 39 20-6 3-22 2-32-14 10 12 30-10 21-38-13-63-40-90-68-21-24-43-46-66-69-30-30-50-73-45-117 0-29 13-56 26-81 19-42 28-88 50-128 9-16 21-29 31-44-12 1-23 3-35 5-17 49-32 100-48 151-38-8 17-127 30-155-52-49-283-56-333 51zm1104-51c19-6 36-16 54-25-3-45-47 9-54 25zm-211 31c34 9 54-12 47-46-21 9-40 24-47 46zm280-39c-15 8-138 63-128 71 19 17 8 33 32 4 12-13 26 1 26 20 0 38-6 77-8 116-3 94 25-84 27-91 4-17 4-36 10-52 15-43 34-7 57-14 7-2 39-83-16-54zm-821 126c36-25 81-20 122-23-41-88-96-53-122 23zm-528 56c-43 62-59 140-54 214 1 44 25 87 14 131-3 19-14 35-28 48-9 10-8 41-2 53 8 14 16 29 30 37 34 20 77 2 103 42 24 35 56 65 92 87 62 37 135 48 206 47-5-17-14-34-25-48-27-39-91-159-111-177-59 16-129-64-150-110-8-13 10-26 20-18 25 18 40 46 66 63 17 10 36 16 55 23-63-30-157-138-172-205-27-32-59-160-16-176-5 30-9 61-6 91 2-49 16-98 33-144 6-17 28-28 21-48-27 28-53 57-76 90zm177-65c-6 13-10 28-17 41-12 16-35 8-52 7-2 12-4 25-8 37 23-18 48-32 76-39 26-7 52-5 78-4-25-16-44-47-77-42zm397 19c-45 17-85 54-96 103-8 45 5 95 39 127 23 21 53 38 85 40 47 0 95-20 126-56 47-54 35-146-23-187-38-26-86-41-131-27zm-522 80c-7 26-4 58-28 75 4 24 9 47 19 70 0-69 2-143 38-204v-22c-15 25-22 53-29 81zm122-24c-53 16-90 65-102 117-13 50 9 103 48 135 61 54 167 40 215-25 32-39 38-96 18-141-14-30-36-58-65-73-35-20-76-17-114-13zm588 204c5-9 7-22 18-25 17-5-15 74-18 80 12 10 21 21 25 35 14-87 16-105-5-191-6 34-11 68-20 101zm-44 133c2 66 20 125 22 189 0 36-6 73-14 109-2 10-11 22-20 12-15-23-29-46-44-68-8-11-20-22-34-20-18 5-27 23-33 39-9 19-4 40-1 59-25 1-31-50-61-73-11-9-27-3-33 9-11 22-20 46-17 71 11-6 10-34 16-48 8 11 15 24 12 38-5 22-8 44-11 65-5-2-10-6-14-11-17-26-34-53-49-81-36-55-71-112-106-168-10-17-70-83-56-34 12 46 45 81 70 121 23 37 47 75 64 115 60 137 21 125 46 201 12 39 87 37 112 42 19 8 24 27 30 45 11 33 84-1 104-12 20-10 2-34 11-49 5-9 14-15 23-20 26-14 53-28 78-45 24-19 38-52 29-81-4-14-18-20-30-26-5 10-9 21-15 31-9 4-20-2-22-12-12-31-6-65-4-98 3-27 2-54 2-81 2-68-4-104-8-174-4-46-50-156-47-45zm-29 234c-5 13 8 38 21 40 3-21 9-43 6-65-9 8-20 15-27 25zm725-1534c30-17 67-20 100-17-33 20-77 9-106 36-14 17-24 37-38 54 6-28 18-58 44-73zm-287 18c61-19 127 18 160 69-25-14-45-33-70-48-27-16-60-15-90-21zm-50 46c33-8 69-10 101 2 68 21 122 82 133 152 18 106-68 196-169 208-35 4-70-3-103-16-46-21-82-62-100-110-19-52-8-112 22-158 27-40 70-67 116-78zm24 8c-56 5-107 41-137 89-43 70-18 171 49 218 48 36 115 45 171 21 65-28 119-75 116-155 2-41-16-80-42-111-38-46-99-67-157-62zm247 290c33 38 40 138 29 188-7 29-32 24-53 10-34-24-38-75-40-114 20 1 8 78 49 109 12 11 35 4 35-13 8-76-7-108-20-180zm-974 33c4 3 7 6 9 12 2 12-10 20-16 29 2-8 2-16 1-25-3-17-22-37 6-16zm-84 8c14 23-3 36-21 51 25-41 6-72 21-51zm1110 1c65 52 112 82 188 22-32 71-153 52-188-22zm-177 14h4c-36 73-146 87-204 33-4-4-9-8-14-12 2 0 4 1 5 1 89 59 132 37 209-22zm-1085 37c-5 12-14 8-23 8 20-19 9-14 14-41 1-7 13 22 9 33zm321 440c-9-29-1-63 24-83-11 27-18 55-24 83zm-202-51c53 30 86 85 109 140-37-46-67-98-109-140zm235 341c46 29 44 103-9 100-21-2-44-14-42-33 12 8 24 20 41 22 21 2 36-24 32-38-4-18-18-31-26-47-4-9-4-9 4-4zm43 139c36-27 70-15 92 21 11 19 23 37 32 57-21 1-38-46-52-63-42-55-127 52-145 85-11 19-11 45-33 56 10-39 24-78 52-108 17-17 35-34 54-48zm10 46c11-7 24-5 35 0 22 9-12 2-27 12-16 8-26 24-35 38-27-7 15-41 27-50z" style="fill:#000"/></svg>